<svg height="512pt" viewBox="-23 0 512 512" width="512pt" xmlns="http://www.w3.org/2000/svg"><path d="m305.402344 398.085938c-24.066406-64.820313-59.679688-133.480469-41.519532-196.539063-37.554687-76.257813-102.238281-138.292969-185.152343-171.851563l-73.363281-29.695312-4.722657 79c-9.125 152.425781 79.40625 292.632812 220.949219 349.921875l71.96875 29.128906zm0 0" fill="#3d6f44"/><path d="m295.726562 463.871094-24.421874-65.796875c-47.132813-126.9375-8.265626-268.753907 97-353.933594l54.558593-44.140625 24.425781 65.796875c47.128907 126.941406 8.261719 268.753906-97.003906 353.933594zm0 0" fill="#23a24d"/><g fill="#be7c6d"><path d="m323.375 512c-2.980469 0-5.890625-1.480469-7.597656-4.1875l-245.601563-388.355469c-2.648437-4.195312-1.398437-9.738281 2.796875-12.386719 4.191406-2.675781 9.734375-1.402343 12.394532 2.792969l245.597656 388.359375c2.648437 4.191406 1.402344 9.734375-2.792969 12.386719-1.492187.941406-3.164063 1.390625-4.796875 1.390625zm0 0"/><path d="m287.445312 512c-.773437 0-1.554687-.097656-2.328124-.304688-4.796876-1.285156-7.632813-6.207031-6.359376-11.003906l103.640626-387.054687c1.285156-4.789063 6.214843-7.660157 11.003906-6.351563 4.796875 1.285156 7.636718 6.207032 6.359375 11.003906l-103.640625 387.054688c-1.085938 4.007812-4.714844 6.65625-8.675782 6.65625zm0 0"/></g></svg>