<?xml version="1.0" standalone="no"?>
<!DOCTYPE svg PUBLIC "-//W3C//DTD SVG 20010904//EN"
 "http://www.w3.org/TR/2001/REC-SVG-20010904/DTD/svg10.dtd">
<svg version="1.0" xmlns="http://www.w3.org/2000/svg"
 width="256.000000pt" height="256.000000pt" viewBox="0 0 256.000000 256.000000"
 preserveAspectRatio="xMidYMid meet">
<metadata>
Created by potrace 1.15, written by Peter Selinger 2001-2017
</metadata>
<g transform="translate(0.000000,256.000000) scale(0.100000,-0.100000)"
fill="#000000" stroke="none">
<path d="M1155 2399 c-291 -39 -546 -179 -729 -401 -174 -210 -258 -445 -258
-718 0 -254 69 -466 220 -670 325 -441 922 -582 1412 -335 145 74 322 224 399
340 l33 50 -38 -45 c-226 -270 -515 -410 -849 -410 -712 0 -1227 684 -1029
1366 112 389 437 683 837 759 102 19 282 19 385 0 259 -49 477 -180 656 -395
l38 -45 -33 50 c-76 114 -253 266 -394 337 -194 99 -448 145 -650 117z"/>
<path d="M1286 2186 c-83 -31 -128 -84 -146 -173 -9 -40 -9 -101 -2 -222 11
-196 13 -190 -128 -375 -16 -21 -43 -75 -60 -120 -17 -44 -46 -115 -65 -156
-35 -75 -41 -104 -29 -134 5 -12 11 -13 24 -6 44 23 102 -31 208 -194 78 -120
106 -187 97 -233 -12 -68 -84 -80 -223 -38 -45 13 -120 32 -167 41 -47 9 -93
22 -102 29 -17 12 -17 15 0 49 21 46 21 74 1 126 -21 52 -8 70 51 70 50 0 90
27 98 66 l5 26 -22 -25 c-28 -33 -57 -47 -100 -47 -42 0 -70 -25 -62 -54 16
-55 17 -113 2 -154 -27 -75 -10 -89 135 -116 47 -9 125 -29 174 -46 105 -35
152 -38 188 -10 65 51 103 60 269 60 l157 0 39 -39 c70 -70 140 -67 236 11 33
27 101 70 149 95 132 68 147 108 61 158 -46 27 -82 83 -84 130 -1 18 -2 17
-11 -4 -12 -29 4 -92 28 -113 10 -9 37 -25 61 -37 70 -36 52 -64 -74 -112 -44
-17 -105 -50 -137 -76 -76 -59 -132 -69 -172 -29 -25 25 -26 28 -23 148 1 68
-2 149 -6 180 -7 47 -6 62 8 83 22 34 30 32 57 -12 30 -51 47 -63 87 -63 44 0
77 21 131 83 l44 51 -6 80 c-9 139 -66 274 -167 396 -102 125 -127 190 -140
368 -10 137 -31 198 -88 264 -61 69 -210 106 -296 74z m219 -260 c41 -41 48
-141 10 -141 -16 0 -19 6 -17 32 5 47 -14 75 -46 71 -30 -3 -57 -47 -47 -77 5
-17 50 -42 102 -56 28 -8 33 -24 23 -71 -8 -35 -5 -48 35 -128 25 -49 45 -95
45 -104 0 -8 13 -36 29 -61 37 -57 58 -133 67 -236 3 -44 11 -86 16 -92 15
-18 42 -16 60 5 41 46 29 155 -31 277 l-39 80 34 -40 c50 -56 78 -155 72 -250
-5 -70 -4 -74 20 -84 33 -16 22 -24 -13 -11 -48 18 -125 -10 -125 -47 0 -7 -9
-13 -20 -13 -11 0 -27 -11 -36 -25 -14 -21 -15 -42 -9 -134 5 -70 3 -129 -5
-167 -16 -82 -19 -89 -31 -77 -7 7 -6 27 5 64 31 105 14 152 -32 89 -36 -48
-96 -73 -189 -78 -71 -4 -86 -2 -117 17 -46 29 -61 20 -36 -22 21 -34 26 -72
11 -81 -5 -3 -12 11 -16 32 -3 20 -18 54 -31 75 l-25 38 25 20 c17 14 26 30
26 50 0 24 -13 39 -77 91 -114 93 -163 139 -177 167 -20 39 -26 85 -16 117 8
27 8 26 9 -14 1 -46 22 -105 41 -117 20 -12 30 16 30 87 0 73 31 174 72 230
14 20 22 49 24 78 1 27 13 69 29 101 16 30 31 64 34 76 6 21 9 19 41 -25 47
-63 67 -64 149 -9 36 24 80 52 96 63 53 32 3 28 -61 -5 -59 -32 -119 -40 -155
-21 -29 16 -23 30 11 24 47 -10 248 65 235 87 -5 7 -13 5 -25 -6 -26 -24 -134
-55 -188 -55 -38 1 -53 6 -79 30 -18 16 -33 35 -33 41 0 6 20 29 45 51 47 41
56 69 32 102 -21 29 -51 16 -55 -23 -2 -18 1 -38 7 -44 13 -13 15 -37 3 -37
-5 0 -14 11 -20 25 -27 59 -2 145 42 145 32 0 48 -22 53 -74 5 -43 6 -44 44
-48 l39 -4 0 44 c0 81 81 122 135 68z"/>
</g>
</svg>
